{"title":"Private Practice.S05E13.720p.x264.HDTV-r3mnants","uid":7007123,"size":544098912,"categoryP":"video","categoryS":"hd___tv_shows","magnet":"?xt=urn:btih:9a57ef44860372954b6e2848d043a219fee0c1a8&amp;dn=Private+Practice.S05E13.720p.x264.HDTV-r3mnants&amp;tr=udp%3A%2F%2Ftracker.openbittorrent.com%3A80&amp;tr=udp%3A%2F%2Fopen.demonii.com%3A1337&amp;tr=udp%3A%2F%2Ftracker.coppersurfer.tk%3A6969&amp;tr=udp%3A%2F%2Fexodus.desync.com%3A6969","seeders":0,"leechers":1,"uploader":"r3mnants","files":3,"time":1328309286,"description":"Private Practice - The Time Has Come - S05E13\n\nReleaser:\nr3mnants\n &lt;a href=&quot;\nhttp://s14.postimage.org/dyz6nqg4v/PP1.png&quot; rel=&quot;nofollow&quot; target=&quot;_NEW&quot;&gt;\nhttp://s14.postimage.org/dyz6nqg4v/PP1.png&lt;/a&gt; &lt;a href=&quot;\nhttp://s14.postimage.org/yx5cltfzj/PP2.png&quot; rel=&quot;nofollow&quot; target=&quot;_NEW&quot;&gt;\nhttp://s14.postimage.org/yx5cltfzj/PP2.png&lt;/a&gt;\n\nFormat                                   : MPEG-4\nFormat profile                           : Base Media\nCodec ID                                 : isom\nFile size                                : 512 MiB\nDuration                                 : 40mn 57s\nOverall bit rate mode                    : Variable\nOverall bit rate                         : 1 747 Kbps\n\nVideo\nID                                       : 1\nFormat                                   : AVC\nFormat/Info                              : Advanced Video Codec\nFormat profile                           : &lt;a class=&quot;__cf_email__&quot; href=&quot;/cdn-cgi/l/email-protection&quot; data-cfemail=&quot;6d25040a052d2159435d&quot;&gt;[email&amp;#160;protected]&lt;/a&gt;&lt;script cf-hash='f9e31' type=&quot;text/javascript&quot;&gt;\n/* &lt;![CDATA[ */!function(){try{var t=&quot;currentScript&quot;in document?document.currentScript:function(){for(var t=document.getElementsByTagName(&quot;script&quot;),e=t.length;e--;)if(t[e].getAttribute(&quot;cf-hash&quot;))return t[e]}();if(t&amp;&amp;t.previousSibling){var e,r,n,i,c=t.previousSibling,a=c.getAttribute(&quot;data-cfemail&quot;);if(a){for(e=&quot;&quot;,r=parseInt(a.substr(0,2),16),n=2;a.length-n;n+=2)i=parseInt(a.substr(n,2),16)^r,e+=String.fromCharCode(i);e=document.createTextNode(e),c.parentNode.replaceChild(e,c)}}}catch(u){}}();/* ]]&gt; */&lt;/script&gt;\nFormat settings, CABAC                   : Yes\nFormat settings, ReFrames                : 3 frames\nCodec ID                                 : avc1\nCodec ID/Info                            : Advanced Video Coding\nDuration                                 : 40mn 57s\nBit rate mode                            : Variable\nBit rate                                 : 1 616 Kbps\nMaximum bit rate                         : 25.0 Mbps\nWidth                                    : 1280 pixels\nHeight                                   : 720 pixels\nDisplay aspect ratio                     : 16:9\nFrame rate mode                          : Constant\nFrame rate                               : 29.970 fps\nColor space                              : YUV\nChroma subsampling                       : 4:2:0\nBit depth                                : 8 bits\nScan type                                : Progressive\nBits/(Pixel*Frame)                       : 0.058\nStream size                              : 473 MiB (92%)\nTitle                                    : PPS05E13\nWriting library                          : x264 core 120 r2120 0c7dab9\n\nAudio\nID                                       : 2\nFormat                                   : AAC\nFormat/Info                              : Advanced Audio Codec\nFormat profile                           : LC\nCodec ID                                 : 40\nDuration                                 : 40mn 57s\nBit rate mode                            : Variable\nBit rate                                 : 128 Kbps\nMaximum bit rate                         : 136 Kbps\nChannel(s)                               : 2 channels\nChannel positions                        : Front: L R\nSampling rate                            : 48.0 KHz\nCompression mode                         : Lossy\nStream size                              : 37.5 MiB (7%)","torrent":{"xt":"urn:btih:9a57ef44860372954b6e2848d043a219fee0c1a8","amp;dn":"Private+Practice.S05E13.720p.x264.HDTV-r3mnants","amp;tr":["udp%3A%2F%2Ftracker.openbittorrent.com%3A80","udp%3A%2F%2Fopen.demonii.com%3A1337","udp%3A%2F%2Ftracker.coppersurfer.tk%3A6969","udp%3A%2F%2Fexodus.desync.com%3A6969"],"infoHash":"9a57ef44860372954b6e2848d043a219fee0c1a8","infoHashBuffer":{"type":"Buffer","data":[154,87,239,68,134,3,114,149,75,110,40,72,208,67,162,25,254,224,193,168]},"announce":[],"urlList":[]}}